<svg width="44" height="37" viewBox="0 0 44 37" fill="none" xmlns="http://www.w3.org/2000/svg">
<path d="M20.5047 36.8319C18.7074 36.8319 17.1798 36.2029 15.9217 34.9448C14.6636 33.6868 14.0346 32.1591 14.0346 30.3619H18.348C18.348 30.9729 18.555 31.4855 18.9691 31.8996C19.3832 32.3137 19.895 32.52 20.5047 32.5186C21.1143 32.5171 21.6269 32.3101 22.0424 31.8974C22.4579 31.4848 22.6642 30.9729 22.6613 30.3619C22.6585 29.7508 22.4514 29.2389 22.0402 28.8263C21.629 28.4137 21.1172 28.2066 20.5047 28.2052H0.0161133V23.8918H20.5047C22.3019 23.8918 23.8296 24.5208 25.0876 25.7789C26.3457 27.037 26.9747 28.5646 26.9747 30.3619C26.9747 32.1591 26.3457 33.6868 25.0876 34.9448C23.8296 36.2029 22.3019 36.8319 20.5047 36.8319ZM0.0161133 15.265V10.9517H29.1314C30.066 10.9517 30.8388 10.6461 31.4499 10.0351C32.0609 9.42401 32.3665 8.65119 32.3665 7.71663C32.3665 6.78206 32.0609 6.00925 31.4499 5.39819C30.8388 4.78712 30.066 4.48159 29.1314 4.48159C28.1969 4.48159 27.424 4.78712 26.813 5.39819C26.2019 6.00925 25.8964 6.78206 25.8964 7.71663H21.583C21.583 5.59588 22.3112 3.80727 23.7677 2.35078C25.2242 0.894301 27.0121 0.166777 29.1314 0.168215C31.2507 0.169653 33.0393 0.897895 34.4973 2.35294C35.9552 3.80799 36.6827 5.59588 36.6798 7.71663C36.677 9.83737 35.9494 11.626 34.4973 13.0825C33.0451 14.539 31.2565 15.2665 29.1314 15.265H0.0161133ZM35.6015 32.5186V28.2052C36.536 28.2052 37.3089 27.8996 37.9199 27.2886C38.531 26.6775 38.8365 25.9047 38.8365 24.9701C38.8365 24.0356 38.531 23.2628 37.9199 22.6517C37.3089 22.0406 36.536 21.7351 35.6015 21.7351H0.0161133V17.4217H35.6015C37.7222 17.4217 39.5108 18.15 40.9673 19.6065C42.4238 21.0629 43.1513 22.8508 43.1499 24.9701C43.1485 27.0894 42.4209 28.8781 40.9673 30.336C39.5137 31.7939 37.7251 32.5214 35.6015 32.5186Z" fill="white"/>
</svg>
