<svg width="39" height="39" viewBox="0 0 39 39" fill="none" xmlns="http://www.w3.org/2000/svg">
<path d="M23.8082 4.8377V3.39129C23.811 3.30869 23.7975 3.22636 23.7685 3.14898C23.7394 3.07161 23.6954 3.00072 23.6389 2.94037C23.5825 2.88002 23.5147 2.83139 23.4394 2.79726C23.3642 2.76312 23.2829 2.74416 23.2003 2.74146H16.0311C15.9485 2.74416 15.8673 2.76312 15.792 2.79726C15.7168 2.83139 15.649 2.88002 15.5925 2.94037C15.536 3.00072 15.492 3.07161 15.463 3.14898C15.4339 3.22636 15.4204 3.30869 15.4232 3.39129V4.8377H11.2307C10.948 4.8611 10.684 4.98889 10.4903 5.19619C10.2965 5.4035 10.1869 5.67548 10.1826 5.95919V35.3066C10.2012 35.5717 10.3198 35.8198 10.5144 36.0008C10.709 36.1817 10.965 36.282 11.2307 36.2814H28.0007C28.2681 36.2819 28.5256 36.1801 28.7205 35.997C28.9153 35.8138 29.0328 35.5631 29.0488 35.2962V5.94871C29.042 5.66682 28.9312 5.39741 28.7377 5.19231C28.5442 4.9872 28.2817 4.8609 28.0007 4.8377H23.8082ZM21.9845 27.3095C22.1332 27.6083 22.1571 27.954 22.051 28.2704C21.9448 28.5869 21.7173 28.8482 21.4185 28.9969C21.1197 29.1457 20.774 29.1696 20.4575 29.0634C20.1411 28.9573 19.8797 28.7298 19.731 28.4309L14.0083 16.954L20.297 18.0021L17.8968 13.8096C17.8142 13.6665 17.7606 13.5085 17.7391 13.3446C17.7176 13.1808 17.7286 13.0143 17.7714 12.8547C17.8142 12.695 17.8881 12.5454 17.9887 12.4143C18.0893 12.2833 18.2148 12.1733 18.358 12.0907C18.5011 12.0081 18.6591 11.9545 18.823 11.933C18.9868 11.9115 19.1533 11.9225 19.3129 11.9653C19.4726 12.0081 19.6222 12.082 19.7533 12.1826C19.8843 12.2833 19.9943 12.4087 20.0769 12.5519L25.1393 21.3247L18.4628 20.2451L21.9845 27.3095Z" fill="white"/>
</svg>
