<svg width="41" height="52" viewBox="0 0 41 52" fill="none" xmlns="http://www.w3.org/2000/svg">
<path d="M36.3783 23.7519C35.7318 22.9086 34.9448 22.1778 34.214 21.447C32.3307 19.7605 30.1945 18.5519 28.3955 16.781C24.2074 12.6772 23.2798 5.90315 25.9501 0.703125C23.2798 1.34961 20.9469 2.81124 18.9512 4.41342C11.6711 10.2599 8.80409 20.5757 12.2333 29.4298C12.3457 29.7108 12.4582 29.9919 12.4582 30.3573C12.4582 30.9757 12.0365 31.5379 11.4744 31.7627C10.8279 32.0438 10.1533 31.8752 9.61923 31.4254C9.4597 31.2918 9.32628 31.1298 9.22572 30.9476C6.04948 26.9281 5.54354 21.1659 7.67976 16.5562C2.98568 20.3789 0.427833 26.8438 0.793241 32.9433C0.96189 34.3487 1.13054 35.7541 1.60838 37.1595C2.0019 38.846 2.76082 40.5325 3.60407 42.0223C6.63976 46.885 11.896 50.3704 17.5458 51.0731C23.5609 51.832 29.9977 50.7358 34.6075 46.5758C39.7513 41.9098 41.5502 34.433 38.908 28.0244L38.5426 27.2935C37.9524 26.0006 36.3783 23.7519 36.3783 23.7519ZM27.4961 41.4601C26.7091 42.1347 25.4161 42.8655 24.4042 43.1466C21.2561 44.2709 18.1079 42.6969 16.2528 40.8417C19.5977 40.0547 21.5933 37.5812 22.1836 35.0795C22.6615 32.8309 21.762 30.9757 21.3966 28.8114C21.0593 26.7314 21.1155 24.9605 21.8744 23.0211C22.4085 24.0892 22.9707 25.1573 23.6453 26.0006C25.8096 28.8114 29.2107 30.0481 29.9415 33.8709C30.0539 34.2644 30.1102 34.6579 30.1102 35.0795C30.1945 37.3844 29.1826 39.9141 27.4961 41.4601Z" fill="white"/>
</svg>
