<svg width="46" height="31" viewBox="0 0 46 31" fill="none" xmlns="http://www.w3.org/2000/svg">
<path d="M0.0649414 0.289551V18.3303H4.57514V13.8201H18.1057L22.6159 9.30995L18.1057 4.79975H4.57514V0.289551H0.0649414ZM40.6567 0.289551V4.79975H22.6159L27.1261 9.30995L22.6159 13.8201H40.6567V18.3303H45.1669V0.289551H40.6567ZM22.6159 18.3303C22.6159 18.3303 18.1057 23.2239 18.1057 26.2232C18.1057 27.4194 18.5809 28.5666 19.4267 29.4124C20.2726 30.2582 21.4198 30.7334 22.6159 30.7334C23.8121 30.7334 24.9593 30.2582 25.8051 29.4124C26.651 28.5666 27.1261 27.4194 27.1261 26.2232C27.1261 23.2239 22.6159 18.3303 22.6159 18.3303Z" fill="white"/>
</svg>
