<svg width="692" height="659" viewBox="0 0 692 659" fill="none" xmlns="http://www.w3.org/2000/svg">
<g filter="url(#filter0_d_127_16)">
<path fill-rule="evenodd" clip-rule="evenodd" d="M110 179.155C82.3858 179.155 60 201.54 60 229.155V528.244C60 555.858 82.3858 578.244 110 578.244H452.289C479.903 578.244 502.289 555.858 502.289 528.244V473.667C502.289 446.053 524.675 423.667 552.289 423.667H581.774C609.389 423.667 631.774 401.282 631.774 373.667V90C631.774 62.3858 609.389 40 581.774 40H257.525C229.911 40 207.525 62.3858 207.525 90V129.155C207.525 156.769 185.139 179.155 157.525 179.155H110Z" fill="#70D4A8"/>
</g>
<mask id="mask0_127_16" style="mask-type:alpha" maskUnits="userSpaceOnUse" x="60" y="40" width="572" height="539">
<path d="M110 179.155C82.3858 179.155 60 201.54 60 229.155V528.244C60 555.858 82.3858 578.244 110 578.244H452.289C479.903 578.244 502.289 555.858 502.289 528.244V473.667C502.289 446.053 524.675 423.667 552.289 423.667H581.774C609.389 423.667 631.774 401.282 631.774 373.667V90C631.774 62.3858 609.389 40 581.774 40H257.525C229.911 40 207.525 62.3858 207.525 90V129.155C207.525 156.769 185.139 179.155 157.525 179.155H110Z" fill="#70D4A8"/>
</mask>
<g mask="url(#mask0_127_16)">
<path d="M492.001 135.552C482.835 154.567 473.67 173.922 466.201 193.617C463.485 200.068 463.146 206.52 466.201 212.972C475.367 233.345 488.606 250.663 506.938 263.906C514.746 269.339 522.893 270.697 532.399 268.999C553.446 264.924 574.154 259.831 594.522 254.738L581.962 187.505C574.493 189.202 566.686 190.9 558.878 192.258C554.464 193.277 553.446 191.919 555.143 187.505C555.483 186.486 556.162 185.467 556.501 184.449C586.715 117.215 617.267 50.322 647.48 -16.911C655.967 -35.9264 654.27 -52.5649 643.746 -69.543C630.846 -89.9166 612.515 -104.178 592.486 -117.081C582.641 -123.533 573.136 -123.873 562.951 -119.798C561.933 -119.458 560.914 -118.779 559.896 -118.44C536.472 -109.272 515.085 -96.7078 493.699 -83.8045C422.07 -40.3407 353.835 8.21648 286.619 58.1319C250.635 84.6177 215.669 112.122 181.043 140.306C172.556 147.097 167.124 155.246 164.748 166.112C161.014 183.43 160.335 200.408 162.711 218.065C164.409 230.968 169.501 241.834 179.685 250.323C186.474 255.756 192.246 262.208 198.696 268.32C275.756 339.967 355.533 408.559 434.97 477.489C442.777 484.281 450.585 491.072 458.393 498.203C461.788 501.259 461.449 502.617 457.375 504.315C453.98 505.673 450.246 506.692 446.512 507.371C408.83 515.52 371.148 524.009 333.806 532.159C307.327 537.931 280.848 542.346 254.709 548.797C230.267 554.57 205.485 558.984 180.703 564.417C155.582 570.19 130.461 575.962 105.001 581.056C96.8533 582.753 93.119 586.489 91.4217 594.298C86.669 618.068 83.9532 642.516 81.2374 666.625C80.5585 672.737 82.5953 674.095 89.0454 672.397C114.166 665.946 139.966 661.531 165.427 655.759C204.127 647.27 242.827 638.781 281.527 630.292C322.604 621.463 363.68 612.635 404.756 603.467C439.383 595.657 474.349 588.526 509.314 581.395C516.443 580.037 522.554 576.641 526.967 571.208C544.28 550.156 554.125 526.386 555.483 498.882C556.162 486.658 552.088 476.131 544.28 466.963C536.472 457.795 528.325 449.306 520.178 440.817C470.954 391.92 418.335 346.759 366.396 300.918C330.412 269.339 294.088 238.099 259.461 205.501C256.406 202.445 253.351 199.389 250.296 196.333C247.919 193.956 247.919 191.919 250.296 189.542C252.672 187.505 254.709 185.128 257.425 183.09C272.022 170.866 286.619 158.302 301.556 146.418C359.946 100.577 420.033 57.4528 481.817 16.0264C507.278 -0.951669 533.078 -17.9297 560.236 -32.5308C562.951 -33.8891 565.328 -35.9264 569.401 -35.5869C568.043 -27.0979 564.649 -19.6275 561.254 -12.1572C539.867 38.0978 515.425 86.655 492.001 135.891V135.552Z" fill="white" fill-opacity="0.2"/>
</g>
<defs>
<filter id="filter0_d_127_16" x="0" y="0" width="691.774" height="658.244" filterUnits="userSpaceOnUse" color-interpolation-filters="sRGB">
<feFlood flood-opacity="0" result="BackgroundImageFix"/>
<feColorMatrix in="SourceAlpha" type="matrix" values="0 0 0 0 0 0 0 0 0 0 0 0 0 0 0 0 0 0 127 0" result="hardAlpha"/>
<feOffset dy="20"/>
<feGaussianBlur stdDeviation="30"/>
<feComposite in2="hardAlpha" operator="out"/>
<feColorMatrix type="matrix" values="0 0 0 0 0.439216 0 0 0 0 0.831373 0 0 0 0 0.658824 0 0 0 0.5 0"/>
<feBlend mode="normal" in2="BackgroundImageFix" result="effect1_dropShadow_127_16"/>
<feBlend mode="normal" in="SourceGraphic" in2="effect1_dropShadow_127_16" result="shape"/>
</filter>
</defs>
</svg>
