<svg width="219" height="85" viewBox="0 0 219 85" fill="none" xmlns="http://www.w3.org/2000/svg">
<path d="M68.3503 26.1174C68.3503 26.1174 68.6726 26.1541 68.8102 26.1501C70.461 26.1027 72.1119 26.0552 73.7614 25.9618C73.8531 25.9592 73.9448 25.9566 74.0365 25.9539C76.0542 25.8959 78.0719 25.8379 80.0896 25.7799C80.1813 25.7773 80.273 25.7746 80.3648 25.772C80.594 25.7654 80.8692 25.7575 81.0147 26.0291C81.113 26.2561 80.9348 26.445 80.8025 26.6327C79.6512 28.0906 78.4068 29.5052 77.2568 31.009C77.08 31.2439 76.852 31.2964 76.6227 31.303C75.0177 31.3491 73.3695 31.4884 71.7659 31.5805C69.6564 31.6411 67.5497 31.7936 65.4403 31.8543C64.89 31.8701 64.4826 32.0656 64.1761 32.58C61.1493 37.447 58.1224 42.3139 55.3302 47.358C54.3702 49.0862 53.4115 50.8602 52.7306 52.7182C52.5577 53.0909 52.432 53.5082 52.3981 53.9228C52.3235 54.5224 52.5581 54.6995 53.1031 54.5C53.5118 54.3504 53.8721 54.1102 54.1865 53.8714C55.131 53.2008 55.934 52.3964 56.7815 51.5447C60.0366 48.2338 62.9615 44.6108 65.8392 40.9431C67.432 38.875 69.2593 36.984 71.5165 35.6782C73.006 34.8081 74.5965 34.2568 76.3377 34.1608C77.4383 34.1291 78.5441 34.2812 79.5675 34.7573C81.6142 35.7096 82.2252 37.8063 82.0016 39.6052C81.7387 41.635 80.8704 43.3606 79.5841 44.9142C76.9225 48.1161 73.4377 49.8249 69.2687 50.0826C69.2687 50.0826 69.2228 50.084 69.177 50.0853C67.8471 50.1235 67.7149 50.3112 67.6627 51.6915C67.6172 53.3014 68.5176 54.2867 70.1291 54.4702C71.649 54.6563 73.0142 54.2494 74.3255 53.5682C75.9539 52.74 77.391 51.6416 78.6878 50.4553C80.5217 48.794 82.2154 47.0447 83.7191 45.0711C83.985 44.7418 84.2051 44.4137 84.4238 44.0397C85.6929 41.889 87.1521 39.9627 88.9847 38.2554C90.6837 36.6899 92.574 35.3946 94.8038 34.733C96.0327 34.3759 97.2655 34.1566 98.602 34.348C100.169 34.5787 100.97 35.2911 101.334 36.7973C101.338 36.9351 101.341 37.0269 101.388 37.0715C101.792 36.7382 102.196 36.4508 102.553 36.0729C103.133 35.5047 103.768 35.2566 104.548 35.2342C105.511 35.2065 106.474 35.1788 107.4 35.4739C107.585 35.5146 107.724 35.5565 107.91 35.6431C108.652 35.8976 108.703 36.0799 108.215 36.6914C105.825 39.7476 103.809 43.0688 102.166 46.5631C101.385 48.1482 100.744 49.7753 100.38 51.4863C100.258 52.0414 100.274 52.5924 100.291 53.1894C100.316 54.062 101.165 54.8649 102.249 54.2362C103.242 53.6562 104.045 52.8517 104.755 52.004C107.731 48.5633 110.331 44.8117 112.696 40.883C115.411 36.3467 118.175 31.901 121.03 27.4526C122.786 24.6904 124.634 21.9256 126.389 19.1174C126.785 18.5086 127.187 18.1293 127.968 18.1528C128.793 18.1291 129.619 18.1054 130.49 18.0803C131.178 18.0606 131.866 18.0408 132.554 18.021C132.783 18.0144 133.012 18.0078 133.196 18.0026C133.611 18.0825 133.709 18.3095 133.538 18.7281C133.496 18.8672 133.407 18.9617 133.319 19.1021C130.115 24.2039 126.912 29.3058 123.802 34.4968C120.605 39.8283 117.407 45.1138 114.629 50.663C114.109 51.7351 113.589 52.8071 113.3 53.9185C113.218 54.2426 113.045 54.6153 113.328 54.8829C113.658 55.1951 114.067 55.0455 114.431 54.9431C114.932 54.7908 115.428 54.5008 115.879 54.2121C117.14 53.3945 118.307 52.4877 119.472 51.489C122.739 48.5915 125.77 45.4709 128.707 42.2611C129.908 40.9397 131.063 39.6196 132.266 38.3441C133.022 37.495 133.543 36.4689 134.158 35.532C134.774 34.5951 135.388 33.6122 135.958 32.6766C135.858 32.4037 135.632 32.5022 135.494 32.5061C133.938 32.6428 132.422 32.5944 130.864 32.6852C130.589 32.6931 130.268 32.7023 129.993 32.7102C129.255 32.5936 128.914 31.9139 129.263 31.2605C129.784 30.2343 130.398 29.2515 130.967 28.27C131.23 27.8488 131.64 27.7451 132.098 27.7319C134.208 27.6712 136.27 27.566 138.383 27.6431C139.071 27.6233 139.479 27.4278 139.874 26.8189C141.808 23.8218 143.834 20.8681 145.768 17.9169C146.076 17.4484 146.482 17.207 147.08 17.2357C148.687 17.2814 150.294 17.2812 151.857 17.3742C152.501 17.4476 152.645 17.6732 152.294 18.2349C151.682 19.2636 151.069 20.2924 150.41 21.3225C149.314 23.1005 148.171 24.8798 147.075 26.6579C146.943 26.8455 146.811 27.0332 146.817 27.2628C146.961 27.4884 147.234 27.3887 147.417 27.3834C148.839 27.3426 150.26 27.3017 151.682 27.2608C151.911 27.2542 152.141 27.2476 152.324 27.2424C152.969 27.3158 153.211 27.7684 152.907 28.3746C152.647 28.8877 152.294 29.4034 151.988 29.9178C151.681 30.4321 151.374 30.9006 151.067 31.415C150.85 31.8349 150.487 31.9832 150.028 31.9964C148.698 32.0346 147.368 32.0728 146.039 32.1111C145.351 32.1308 144.664 32.1965 143.975 32.1704C143.562 32.1823 143.34 32.4185 143.164 32.6993C142.376 34.0089 141.541 35.3197 140.754 36.6752C138.213 40.8848 135.671 45.0484 133.457 49.4324C132.76 50.7393 132.109 52.045 131.645 53.4831C131.518 53.8544 131.39 54.1798 131.401 54.5472C131.415 55.0524 131.603 55.1849 132.057 55.0339C132.647 54.7872 133.188 54.4499 133.728 54.0667C134.895 53.1599 136.015 52.2084 137.086 51.1665C140.795 47.6588 144.313 43.9267 147.784 40.15C148.408 39.4887 148.752 38.6974 149.188 37.9035C152.334 32.3897 155.526 26.8745 158.672 21.3607C159.895 19.2113 161.164 17.0606 162.107 14.7355C162.322 14.2237 162.682 13.9836 163.231 13.9218C164.788 13.7852 166.301 13.7417 167.868 13.9724C168.005 13.9684 168.144 14.0104 168.283 14.0524C168.932 14.2635 169.126 14.6256 169.007 15.2725C168.924 15.5966 168.75 15.9234 168.62 16.2028C166.623 20.1669 164.393 23.9999 162.162 27.8328C159.451 32.5068 156.74 37.1809 154.028 41.809C153.985 41.9022 153.897 42.0426 153.766 42.2761C154.127 42.0819 154.258 41.8483 154.436 41.6594C156.168 39.6333 158.041 37.741 160.295 36.2974C161.375 35.5769 162.553 35.0374 163.875 34.7237C164.513 34.5674 165.2 34.5018 165.844 34.5751C167.132 34.676 168.114 35.2912 168.698 36.4694C169.187 37.5125 169.265 38.6133 168.93 39.726C168.55 40.8859 168.031 42.0039 167.42 43.0786C166.372 44.9472 165.324 46.8157 164.276 48.6843C163.752 49.6186 163.229 50.5528 162.889 51.5278C162.761 51.8532 162.544 52.2731 162.874 52.5853C163.204 52.8976 163.612 52.702 163.974 52.5537C165.152 52.0143 166.139 51.2046 167.124 50.349C169.81 48.0196 172.306 45.42 174.662 42.7785C175.285 42.0712 175.907 41.3639 176.576 40.7012C177.78 39.4716 178.563 37.9783 179.439 36.5283C179.658 36.1544 179.877 35.7804 180.094 35.3605C180.357 34.9393 180.763 34.6978 181.268 34.6833C182.231 34.6556 183.194 34.6279 184.118 34.8312C184.301 34.8259 184.441 34.9138 184.626 34.9544C185.691 35.2915 186.031 35.9252 185.786 36.9893C185.541 38.0535 185.02 39.0796 184.497 40.0598C183.019 42.9059 181.26 45.5763 179.688 48.3791C179.121 49.4066 178.6 50.4327 178.079 51.4588C177.818 51.9719 177.603 52.4836 177.575 53.0819C177.546 53.6803 177.736 53.9046 178.332 53.8875C178.882 53.8716 179.336 53.6748 179.786 53.386C180.915 52.7561 181.899 51.8546 182.79 50.9097C184.35 49.3022 185.721 47.5163 187.047 45.7316C188.416 43.8538 189.691 41.9328 190.873 39.9225C191.791 38.3334 192.802 36.7876 194.046 35.373C194.401 34.9492 194.805 34.6159 195.208 34.2825C196.331 33.423 197.523 33.3887 198.777 33.9042C199.613 34.2478 200.274 34.8723 200.799 35.5926C201.132 35.9966 201.093 36.2276 200.739 36.6973C199.856 37.9177 199.022 39.2286 198.186 40.4936C196.299 43.4893 194.506 46.5743 192.851 49.6553C190.977 53.1103 189.195 56.6086 187.552 60.1029C187.163 60.9414 187.164 60.9873 188.127 60.9596C190.922 60.7874 193.671 60.6164 196.467 60.4901C198.391 60.3888 200.316 60.2875 202.195 60.1875C204.349 60.0797 206.501 59.9259 208.655 59.818C210.626 59.7154 212.642 59.6114 214.613 59.5088C215.346 59.4877 216.08 59.4667 216.812 59.3996C216.996 59.3944 217.225 59.3878 217.409 59.3825C218.007 59.4572 218.249 59.8639 218.035 60.4216C217.993 60.5607 217.905 60.7011 217.816 60.7956C217.072 62.0579 216.281 63.2756 215.537 64.538C215.232 65.0983 214.825 65.2938 214.183 65.3123C211.156 65.3993 208.084 65.4876 205.057 65.5746C202.168 65.6577 199.279 65.7407 196.345 65.8251C193.41 65.9095 190.429 65.9951 187.494 66.0795C186.806 66.0993 186.12 66.165 185.431 66.1388C184.926 66.1533 184.702 66.3436 184.486 66.8094C183.497 69.1359 182.555 71.4611 181.658 73.7849C180.465 76.9905 179.365 80.2394 178.496 83.5276C178.25 84.5458 177.665 84.9763 176.607 84.8688C175.134 84.7273 173.833 84.1672 172.746 83.0954C172.179 82.5142 171.977 81.8766 172.138 81.0906C172.376 79.7968 172.614 78.5031 172.808 77.2566C173.156 74.9945 173.368 72.7823 173.348 70.4848C173.317 69.4286 173.241 68.3737 173.027 67.3227C172.914 66.5906 172.82 66.5014 172.041 66.5238C169.243 66.6042 166.492 66.6833 163.695 66.7637C163.19 66.7782 162.64 66.794 162.135 66.8085C161.539 66.8257 161.166 66.6066 160.787 66.2038C159.931 65.1713 159.44 64.0364 159.219 62.7559C159.164 62.4357 159.109 62.1156 159.1 61.7941C159.033 61.0607 159.339 60.5463 160.019 60.251C160.88 59.8585 161.792 59.6485 162.706 59.5303C165.494 59.1284 168.212 59.4639 170.77 60.6313C171.281 60.8464 171.793 61.1075 172.262 61.4617C172.497 61.6388 172.774 61.7227 173.095 61.7135C175.433 61.6003 177.816 61.4859 180.155 61.4186C180.568 61.4068 180.841 61.3529 181.013 60.9344C182 58.562 182.988 56.1896 183.929 53.8185C183.926 53.7266 184.016 53.6322 183.921 53.5429C183.695 53.6414 183.608 53.8277 183.475 53.9694C182.273 55.2909 180.979 56.569 179.541 57.6215C179.361 57.7646 179.181 57.8617 179.001 58.0047C176.799 59.6307 174.498 59.4211 172.214 58.1998C170.583 57.3275 169.893 55.6927 170.3 53.8885C170.502 52.9176 170.937 52.0778 171.279 51.1947C171.365 51.0084 171.499 50.8666 171.445 50.5924C170.91 51.1593 170.421 51.679 169.932 52.2445C168.465 53.8954 166.808 55.3218 165.009 56.6145C163.75 57.5239 162.439 58.2051 160.937 58.6619C160.027 58.9179 159.067 59.0374 158.1 58.9273C156.256 58.6586 155.127 57.6799 155.239 55.1948C155.333 53.6754 155.796 52.2373 156.307 50.8438C157.246 48.3808 158.462 46.0018 159.679 43.6228C160.288 42.4563 160.896 41.2439 161.366 40.0354C161.451 39.8031 161.672 39.521 161.435 39.252C161.152 38.9844 160.885 39.2679 160.612 39.3676C159.977 39.6157 159.486 40.0894 158.994 40.5631C157.609 41.8439 156.504 43.3464 155.402 44.8948C152.711 48.695 150.393 52.6684 148.169 56.7309C147.864 57.2912 147.558 57.8056 147.298 58.3646C147.125 58.7372 146.854 58.8829 146.439 58.8029C145.609 58.6889 144.825 58.5276 144.08 58.1813C141.848 57.1424 141.18 54.6797 141.679 52.8729C142.011 51.6684 142.529 50.5045 143.047 49.3865C143.132 49.1542 143.265 48.9666 143.255 48.6451C142.945 49.0217 142.589 49.3997 142.278 49.7763C139.923 52.4638 137.475 55.108 134.601 57.3048C133.613 58.0686 132.531 58.7431 131.351 59.1907C129.126 60.036 126.948 59.3173 125.743 57.2837C124.728 55.5204 124.308 53.694 125.123 51.6943C125.296 51.3216 125.421 50.9043 125.592 50.4398C125.226 50.4963 125.095 50.7299 124.917 50.9188C123.445 52.386 121.974 53.899 120.407 55.2769C119.107 56.3714 117.761 57.4212 116.317 58.29C115.64 58.6772 114.915 59.0197 114.19 59.3164C111.106 60.6 107.194 58.6442 106.448 55.0347C106.441 54.8051 106.434 54.5296 106.198 54.3066C105.662 54.8275 105.08 55.3498 104.544 55.8708C103.607 56.771 102.574 57.582 101.398 58.1674C100.267 58.7514 99.0843 59.1071 97.7924 58.8685C96.1768 58.5473 95.0957 57.6591 94.6368 56.0637C94.486 55.6084 94.4257 55.1046 94.3194 54.6021C94.0888 54.5627 94.0482 54.7477 93.9605 54.8881C92.8929 56.0679 91.7297 57.1124 90.3293 57.8881C88.659 58.8553 86.8824 59.32 84.9432 58.9162C83.2347 58.5516 82.1509 57.5716 81.6893 55.8844C81.3825 54.7901 81.3495 53.642 81.4554 52.5359C81.4488 52.3063 81.5811 52.1187 81.4343 51.8012C81.1239 52.1778 80.8121 52.5085 80.5003 52.8392C78.6783 54.9138 76.6177 56.6736 74.1771 57.9847C72.2343 59.0517 70.1853 59.6162 67.9343 59.543C66.8325 59.5287 65.7712 59.3294 64.7491 58.8992C63.1243 58.2565 62.0811 57.0915 61.6196 55.4042C61.2616 54.1276 61.2247 52.8418 61.3698 51.5047C61.3658 51.3669 61.4995 51.2252 61.3566 51.0455C60.5576 51.9877 59.8031 52.8826 59.0028 53.7789C57.4912 55.4769 55.9324 57.1304 54.1364 58.5149C53.5521 58.9453 52.9666 59.3298 52.3338 59.6698C50.5273 60.6869 47.9801 59.8868 46.929 58.4463C45.7337 56.7801 45.1306 54.959 45.8049 52.8714C46.2265 51.5723 46.7883 50.3612 47.3501 49.1501C49.6053 44.5811 52.2353 40.2771 54.9098 35.9258C55.5227 34.897 56.1815 33.8669 56.8403 32.8369C56.9281 32.6965 57.0617 32.5547 57.0564 32.371C56.2768 32.3935 55.5392 32.2768 54.7622 32.391C53.4809 32.5198 52.1956 32.5108 50.9116 32.5477C48.9398 32.6044 46.9247 32.7542 44.9502 32.7191C44.1248 32.7428 43.429 32.487 42.9074 31.9045C41.5825 30.5178 40.7541 28.8411 40.3345 27.0147C40.1797 26.4217 40.3028 25.9126 40.6551 25.3969C41.6204 23.8524 42.6813 22.4431 43.741 20.9878C46.4798 17.2782 49.3117 13.6118 51.909 9.76831C52.3058 9.20537 52.7027 8.64243 52.958 7.94567C52.6344 7.86306 52.4077 7.96149 52.1353 8.06125C49.6329 8.8226 47.2289 9.81093 44.8262 10.8452C39.0213 13.2642 33.3146 15.9101 27.7063 18.783C26.2586 19.5141 24.8595 20.3356 23.4132 21.1126C23.1879 21.2569 22.9626 21.4013 22.7373 21.5456C22.5119 21.69 22.4714 21.875 22.6155 22.1007C22.8082 22.4169 23.0467 22.7317 23.2381 23.002C25.6273 26.2885 28.1056 29.4805 30.5852 32.7184C34.1617 37.3955 37.8274 41.9781 41.1354 46.8928C41.7107 47.7495 42.2402 48.6076 42.7239 49.4669C43.2547 50.3709 43.4187 51.2854 43.1726 52.3036C42.5953 54.5723 41.4086 56.3989 39.6153 57.8752C39.1673 58.2558 38.5751 58.4107 37.979 58.4278C34.9511 58.4689 31.9219 58.4641 28.8954 58.5511C25.3186 58.6539 21.7876 58.7554 18.2081 58.7664C14.8606 58.8626 11.4659 58.9143 8.11831 59.0105C5.91719 59.0738 3.71342 59.0452 1.46776 59.1557C0.871625 59.1729 0.730094 59.039 0.898999 58.5286C1.5314 56.5801 2.11663 54.5869 2.93378 52.679C3.19044 52.0282 3.55069 51.788 4.28572 51.8129C6.48949 51.8414 8.64211 51.6876 10.8432 51.6244C12.9985 51.5624 15.1106 51.5936 17.2658 51.5316C19.5587 51.4657 21.8541 51.4917 24.147 51.4257C27.4028 51.3321 30.7045 51.2372 33.9616 51.1896C34.2826 51.1803 34.6036 51.1711 34.9233 51.116C35.2888 51.0595 35.3321 50.9663 35.0935 50.6514C34.568 49.9312 33.9979 49.2582 33.4724 48.5379C27.9916 41.4796 22.4662 34.4685 17.2108 27.2658C16.7809 26.6807 16.3956 26.0483 15.9198 25.4645C15.2056 24.5658 14.9486 23.608 15.0544 22.5019C15.1498 21.0284 15.4757 19.5942 16.0781 18.1981C16.4212 17.3609 17.046 16.7455 17.8596 16.3084C21.2041 14.5117 24.5972 12.8055 27.9929 11.1912C34.4213 8.11087 40.8538 5.16829 47.5759 2.72296C49.5738 1.97611 51.5743 1.3211 53.6273 0.894398C53.719 0.891761 53.8107 0.889125 53.9011 0.840565C54.8143 0.676431 55.6005 0.883636 56.3081 1.55271C57.7706 2.93546 59.0536 4.46125 59.7969 6.37024C60.4393 7.96041 60.2968 9.3893 59.283 10.8432C55.6666 15.9569 52.049 21.0247 48.4326 26.1384C48.3894 26.2316 48.299 26.2802 48.2558 26.3733C48.0357 26.7014 48.0856 26.8378 48.4983 26.826C49.4613 26.7983 50.4243 26.7706 51.3872 26.7429C51.6165 26.7363 51.8458 26.7297 52.0292 26.7245C54.0469 26.6665 56.0646 26.6085 58.0823 26.5505C58.816 26.5294 59.5484 26.4624 60.2835 26.4872C60.8337 26.4714 61.1966 26.323 61.5044 25.8546C63.2189 23.2315 64.9793 20.6071 66.7396 17.9826C67.0029 17.5614 67.3133 17.1848 67.5765 16.7636C67.7966 16.4355 68.1123 16.2426 68.5696 16.1835C69.7592 16.0574 70.9973 16.0218 72.1922 16.0794C72.5132 16.0701 72.8827 16.1514 73.2064 16.2341C73.8536 16.3993 74.0018 16.7627 73.7425 17.3217C73.4832 17.8807 73.178 18.441 72.8715 18.9554C71.6024 21.1061 70.2416 23.2594 68.9253 25.3655C68.7943 25.5991 68.6162 25.788 68.535 26.158M88.2501 52.6164C88.2501 52.6164 88.262 53.0297 88.2673 53.2134C88.4326 54.1738 89.1782 54.566 90.0848 54.1723C90.5839 53.9741 90.9874 53.6407 91.3437 53.2628C93.3059 51.276 94.706 48.8918 95.92 46.4209C96.4845 45.3017 96.91 44.1404 97.5203 43.0198C97.9565 42.2259 98.2537 41.3901 98.5051 40.5555C98.6308 40.1383 98.7093 39.6764 98.7432 39.2618C98.7234 38.5729 98.4404 38.3053 97.7552 38.4169C97.3425 38.4288 96.9364 38.6703 96.5748 38.8645C95.7626 39.3475 95.0002 39.9669 94.378 40.6742C91.9756 43.3171 90.1355 46.3574 88.9007 49.7021C88.5602 50.6311 88.3115 51.5575 88.2501 52.6164ZM69.4448 46.6305C72.3612 45.9032 74.5659 44.3691 75.9568 41.6634C76.0864 41.3839 76.1689 41.0598 76.2055 40.737C76.187 40.0941 75.8568 39.7818 75.2201 39.984C74.6737 40.1376 74.2703 40.4709 73.8681 40.8501C72.8844 41.7517 71.9936 42.6965 71.1986 43.7765C70.5358 44.6688 69.9189 45.5598 69.4907 46.6292M176.587 73.0114C176.587 73.0114 176.719 72.8238 176.761 72.6847C177.183 71.3857 177.559 70.088 178.027 68.8336C178.238 68.184 178.496 67.5791 178.708 66.9755C178.878 66.511 178.784 66.4218 178.327 66.4809C177.732 66.544 177.089 66.5165 176.493 66.5337C175.942 66.5495 175.944 66.5954 176.05 67.0979C176.61 69.0122 176.758 70.9842 176.587 73.0114ZM168.421 61.9398C167.262 61.5595 166.109 61.3628 164.92 61.4889C164.645 61.4968 164.186 61.51 164.195 61.8315C164.205 62.1529 164.662 62.0938 164.937 62.0859C166.082 62.007 167.23 62.02 168.375 61.9411" fill="black"/>
</svg>
