<svg xmlns="http://www.w3.org/2000/svg" id="Layer_1" data-name="Layer 1" viewBox="0 0 200 46"><defs><style>.cls-1{fill:#29dbc2}</style></defs><path d="M197.06 42.24H197a1.83 1.83 0 1 0 1.89 1.76 1.83 1.83 0 0 0-1.83-1.76m1.37 1.87a1.38 1.38 0 0 1-1.37 1.35H197a1.4 1.4 0 0 1-1.33-1.46v-.1a1.38 1.38 0 0 1 1.44-1.31 1.39 1.39 0 0 1 1.32 1.44Z" class="cls-1"/><path d="M197.47 44.09a.49.49 0 0 0 .37-.44.5.5 0 0 0-.17-.39 1.13 1.13 0 0 0-.61-.12 5 5 0 0 0-.68 0V45h.41v-.71h.2c.22 0 .34.1.36.29a1.8 1.8 0 0 0 .15.44h.44a.9.9 0 0 1-.12-.44.58.58 0 0 0-.35-.49m-.51-.15h-.19v-.51a.8.8 0 0 1 .22 0c.26 0 .39.07.39.27s-.2.24-.38.24ZM198.3 3.55c.13-.35.73-1.88.56-2.22s-.36-.22-.58-.25a8 8 0 0 0-2.76.47 14.8 14.8 0 0 0-5.52 2.9 7.52 7.52 0 0 0-2.65 4.17c-.35 1.17-.1 4-.05 5.12s.05 1.29.24 1.31.46-.73.51-.9v-.05c.27-.63 1.61-3.24 2.34-4.82a17 17 0 0 1 3.11-4.08 7.1 7.1 0 0 1 1.68-1.2c.12 0-.22.37-.53.71s-.59.68-1.66 2a44 44 0 0 0-3.17 4.9c-.45.89-1.28 2.39-1.79 3.25.05-.1-.57.85.42.36a12.3 12.3 0 0 0 2.25-1.17 26.6 26.6 0 0 0 3.56-2.78A14.6 14.6 0 0 0 197 6.94c.33-.88 1-2.32 1.3-3.39M187.36 18.66h4.85v27.09h-4.85zM157.73 45.75h4.56V29.44h17.78v-4.37h-17.78V11.23h19.95V6.81h-24.51zM14.56 6.49H0V46h3.14V29.86h11.45c9.08 0 13.88-4.05 13.88-11.71 0-7.85-4.55-11.66-13.91-11.66m11.09 11.65c-.29 6-3.81 8.85-11.06 8.85H3.14V9.36h11.45c4.29 0 7.25.88 9 2.71a8 8 0 0 1 2.06 6.07M151 41.88a5.8 5.8 0 0 1-3.91 1.37c-3 0-4.62-1.72-4.62-5v-16.7h8.41V18.8h-8.41V13h-3.09v5.8h-4.85v2.75h4.85v17c0 4.75 2.72 7.47 7.47 7.47a8.2 8.2 0 0 0 5.6-2l.16-.16-1.35-2.21ZM122.75 18.58c-4.6 0-8.18 1.81-10.2 5.12v-4.9h-3v27h3.08V31.44c0-6.18 3.74-10 9.75-10 5.34 0 8.28 3.14 8.28 8.85v15.49h3.09V30.07c0-7.17-4.11-11.46-11-11.49M93.24 18.61c-7.49 0-12.93 5.75-12.93 13.68S86 46 94.22 46a12.84 12.84 0 0 0 10.18-4.4l.15-.18-1.83-2.1-.21.25a10.32 10.32 0 0 1-8.24 3.61c-6.1 0-10.54-4.09-10.9-10h22.71v-.99c.04-7.87-5.37-13.58-12.84-13.58m-9.82 12c.53-5.48 4.54-9.27 9.85-9.27s9.36 3.79 9.82 9.27ZM75.5 8.27a2.35 2.35 0 0 0-2.35 2.35 2.31 2.31 0 0 0 2.3 2.3 2.3 2.3 0 0 0 1.61-.67 2.26 2.26 0 0 0 .69-1.63A2.22 2.22 0 0 0 77.13 9a2.3 2.3 0 0 0-1.63-.73M73.95 18.8h3.09v26.98h-3.09zM69.12 41.88a5.73 5.73 0 0 1-3.91 1.37c-3 0-4.62-1.72-4.62-5v-16.7H69V18.8h-8.42V13h-3.09v5.8h-4.85v2.75h4.85v17c0 4.73 2.72 7.45 7.51 7.45a8.2 8.2 0 0 0 5.6-2l.16-.16-1.35-2.22ZM41.26 18.61a16.3 16.3 0 0 0-10.76 3.82l-.19.16 1.59 2.29.23-.21a13.37 13.37 0 0 1 8.94-3.27c5 0 7.57 2.51 7.57 7.26v1.84h-8.79c-8.85 0-10.15 4.8-10.15 7.67 0 4.74 3.84 7.81 9.78 7.81 4.08 0 7.32-1.49 9.23-4.22v4h3v-17C51.7 22.21 48 18.61 41.26 18.61M48.62 33v4.62c-1.51 3.73-4.54 5.7-8.8 5.7-4.42 0-7.06-2-7.06-5.28s2.39-5 7.11-5Z" class="cls-1"/></svg>